<?xml version="1.0" standalone="no"?>
<!DOCTYPE svg PUBLIC "-//W3C//DTD SVG 20010904//EN"
 "http://www.w3.org/TR/2001/REC-SVG-20010904/DTD/svg10.dtd">
<svg version="1.0" xmlns="http://www.w3.org/2000/svg"
 width="256.000000pt" height="256.000000pt" viewBox="0 0 256.000000 256.000000"
 preserveAspectRatio="xMidYMid meet">
<metadata>
Created by potrace 1.11, written by Peter Selinger 2001-2013
</metadata>
<g transform="translate(0.000000,256.000000) scale(0.100000,-0.100000)"
fill="#000000" stroke="none">
<path d="M1075 2193 c-558 -69 -968 -361 -1059 -754 -10 -40 -14 -100 -12
-164 6 -194 91 -367 259 -525 54 -51 149 -121 180 -133 27 -10 31 -34 12 -85
-47 -128 -80 -181 -195 -311 -86 -98 -96 -125 -59 -162 18 -18 29 -21 73 -15
222 26 515 154 719 314 l58 46 207 1 c147 1 232 6 292 18 47 9 97 19 113 22
60 12 238 75 308 110 216 108 389 268 477 441 50 99 67 173 67 304 0 133 -16
204 -70 309 -140 278 -508 511 -892 566 -21 3 -45 9 -53 12 -17 6 -380 11
-425 6z m460 -198 c103 -20 197 -46 209 -56 6 -5 17 -9 26 -9 29 0 235 -109
303 -161 81 -62 174 -168 210 -243 177 -361 -83 -736 -616 -890 -48 -14 -109
-28 -135 -32 -26 -3 -67 -10 -92 -14 -43 -8 -337 -6 -410 4 -30 3 -42 -3 -95
-49 -82 -72 -183 -140 -285 -192 -47 -23 -88 -43 -92 -43 -3 0 9 30 27 68 18
37 49 120 68 185 l34 117 -91 54 c-181 106 -298 217 -359 338 -66 132 -73 276
-21 408 110 277 445 476 899 533 69 9 345 -3 420 -18z"/>
</g>
</svg>
